<svg xml:space="preserve" viewBox="0 270.336 1271.808 503.808" version="1.1" xmlns:xlink="http://www.w3.org/1999/xlink" xmlns="http://www.w3.org/2000/svg" style="max-height: 500px" width="1271.808" height="503.808">
<desc>Created with Fabric.js 5.3.0</desc>
<defs>
</defs>
<g id="background-logo" transform="matrix(1 0 0 1 640 512)">
<rect height="1024" width="1280" ry="0" rx="0" y="-512" x="-640" paint-order="stroke" style="stroke: none; stroke-width: 0; stroke-dasharray: none; stroke-linecap: butt; stroke-dashoffset: 0; stroke-linejoin: miter; stroke-miterlimit: 4; fill: rgb(0,47,64); fill-rule: nonzero; opacity: 1;"/>
</g>
<g id="shape-299f92df-ced9-4230-bf9c-59af2595750d" transform="matrix(1.9211538461538462 0 0 1.9211538461538462 638.8359565466801 511.0687652373441)">
<g paint-order="stroke" style="">
		<g id="Path-05" transform="matrix(1 0 0 1 13.258029501974534 7.102494999999976)">
<path stroke-linecap="round" d="M 250 115.95481 C 250 129.92018 244.34214 142.55507 235.18994 151.69562 C 226.04939000000002 160.84781999999998 213.4145 166.50574999999998 199.46064 166.50574999999998 L 131.66989 166.50574999999998 C 115.80689000000001 184.90258999999998 95.00339000000001 203.43834999999999 70.82129 209.68629999999996 C 61.22948 212.06978999999995 49.21943 211.21359999999996 40.969750000000005 204.51437999999996 C 27.895250000000004 194.06629999999996 25.685270000000003 176.22481999999997 26.749790000000004 160.55855999999994 C 26.819210000000005 159.30893999999995 26.923300000000005 158.08247999999995 27.050560000000004 156.87918999999994 L 40.773070000000004 158.93867999999995 C 40.36806000000001 161.03290999999996 40.020970000000005 163.17346999999995 39.74329 165.34870999999995 C 38.62093 174.17683999999994 38.829260000000005 183.44470999999996 42.69372 191.19686999999996 C 47.51854 201.28626999999997 58.78814 204.49120999999997 69.56015 202.85981999999996 C 93.40665999999999 198.94902999999996 113.78206 182.99351999999996 130.84835999999999 166.50573999999995 C 132.0864 165.16353999999995 133.30127 163.78665999999996 134.51614999999998 162.37510999999995 C 139.15587999999997 157.04111999999995 143.65677 151.29067999999995 147.96090999999998 145.18148999999994 C 150.84198999999998 141.08560999999995 153.53784 136.96655999999993 156.04865999999998 132.83592999999993 C 162.77103999999997 121.77465999999993 168.15122 110.66713999999993 172.08516999999998 100.02237999999994 C 175.74137999999996 90.16439999999994 178.15961 80.68826999999995 179.28190999999998 71.98739999999994 C 179.57117 69.74274999999994 179.77943 67.55592999999993 179.89516999999998 65.41536999999994 C 180.36951999999997 27.96208999999994 155.67839999999998 18.069439999999936 124.94749999999998 35.62166999999994 C 112.90270999999997 41.92752999999994 100.77697999999998 53.37064999999994 89.55370999999997 65.41536999999994 C 87.51730999999997 67.59059999999994 85.51565999999997 69.78899999999994 83.54868999999997 71.98739999999994 C 76.62962999999996 79.69322999999994 70.15017999999996 87.29496999999994 64.37657999999996 93.62392999999994 L 54.40292999999996 83.96269999999994 L 66.97990999999996 71.98739999999994 L 73.87586999999996 65.41536999999994 L 85.52723999999996 54.31942999999994 C 103.55388999999997 38.306009999999944 129.02020999999996 20.25625999999994 154.39401999999995 22.90584999999994 C 175.11658999999995 25.71743999999994 182.33648999999997 47.12261999999994 180.90176999999994 65.41536999999994 L 181.35302999999993 65.41536999999994 C 182.17447999999993 60.208699999999936 184.61587999999992 49.55243999999994 191.60435999999993 38.37542999999994 C 195.35314999999994 32.370409999999936 200.46722999999992 27.788589999999935 205.78963999999993 24.340569999999936 C 218.07736999999995 16.287639999999936 231.42953999999995 14.204989999999937 231.42953999999995 14.204989999999937 C 231.42953999999995 14.204989999999937 229.60139999999996 45.51439999999994 214.09714999999994 57.97563999999994 C 209.76983999999993 61.45832999999994 205.28053999999995 63.83023999999994 201.04573999999994 65.43853999999995 C 228.22458999999995 66.27163999999995 249.99995999999993 88.57927999999995 249.99995999999993 115.95480999999995 Z" transform="translate(-138.25802950197453, -112.5496261914613)" paint-order="stroke" style="stroke: none; stroke-width: 1; stroke-dasharray: none; stroke-linecap: butt; stroke-dashoffset: 0; stroke-linejoin: miter; stroke-miterlimit: 4; fill: rgb(0,178,127); fill-rule: nonzero; opacity: 1;"/>
</g>
		<g id="Path-04" transform="matrix(1 0 0 1 -40.83708 10.517008808538662)">
<path stroke-linecap="round" d="M 168.32584 65.41892 C 168.21002 67.55955 168.00184 69.74595 167.71258 71.9911 C 166.59029 80.69147000000001 164.1604 90.16810000000001 160.52743 100.02551 C 155.11229 114.63931 147.0016 130.12033 136.39152 145.18497 C 130.95350000000002 152.90232 125.20299000000001 160.04113999999998 119.27897000000002 166.50936 L 50.53944 166.50936 C 46.836909999999996 166.50936 43.22695 166.11558 39.74426 165.35232 C 35.15079 164.34555999999998 30.788809999999998 162.72582 26.75069 160.56203 C 25.234969999999997 159.75188 23.76558 158.87279999999998 22.34238 157.91236999999998 C 8.86295 148.84139 0 133.4293 0 115.9585 C 0 102.00457 5.65792 89.36925 14.79855 80.21746999999999 C 23.95068 71.07699 36.58551 65.41891999999999 50.539429999999996 65.41891999999999 C 50.539429999999996 65.41891999999999 168.32584 65.41891999999999 168.32584 65.41891999999999 Z" transform="translate(-84.16292, -115.96413999999999)" paint-order="stroke" style="stroke: none; stroke-width: 1; stroke-dasharray: none; stroke-linecap: butt; stroke-dashoffset: 0; stroke-linejoin: miter; stroke-miterlimit: 4; fill: rgb(0,153,206); fill-rule: nonzero; opacity: 1;"/>
</g>
		<g id="Path-03" transform="matrix(1 0 0 1 -0.5780049999999903 -19.438836191461313)">
<linearGradient y2="100.02551" x2="124.422" y1="71.99108" x1="124.422" gradientTransform="matrix(1 0 0 1 0 0)" gradientUnits="userSpaceOnUse" id="SVGID_linear-gradient_9_371627">
<stop style="stop-color:rgb(255,255,255);stop-opacity: 1" offset="0%"/>
<stop style="stop-color:rgb(148,240,255);stop-opacity: 1" offset="100%"/>
</linearGradient>
<path stroke-linecap="round" d="M 165.3985 71.99108 C 164.27621000000002 80.69145 161.84632000000002 90.16808 158.21335000000002 100.02548999999999 L 40.23019 100.02548999999999 C 33.11439 100.02548999999999 27.35237 94.26402999999999 27.35237 87.14780999999999 L 27.35237 84.86876 C 27.35237 77.75253 33.11439 71.99108 40.23019 71.99108 L 165.39849 71.99108 Z M 221.49162 84.86878 L 221.49162 87.14783 C 221.49162 94.26406 215.7296 100.02551 208.61379000000002 100.02551 L 174.40027000000003 100.02551 C 178.05640000000002 90.1681 180.47471000000004 80.69147 181.59701000000004 71.99109999999999 L 208.61379000000005 71.99109999999999 C 215.72959000000006 71.99109999999999 221.49162000000004 77.75255999999999 221.49162000000004 84.86877999999999 Z" transform="translate(-124.42199500000001, -86.008295)" paint-order="stroke" style="stroke: none; stroke-width: 1; stroke-dasharray: none; stroke-linecap: butt; stroke-dashoffset: 0; stroke-linejoin: miter; stroke-miterlimit: 4; fill: url(#SVGID_linear-gradient_9_371627); fill-rule: nonzero; opacity: 0.5;"/>
</g>
		<g id="Path-02" transform="matrix(1 0 0 1 -53.009129999999516 23.5799888085387)">
<path stroke-linecap="round" d="M 139.35358 132.34174 C 137.23611 135.75521999999998 134.97995 139.15684 132.60797 142.524 C 127.77163999999999 149.38487 122.61122999999999 155.88755 117.23097999999999 161.8812 L 50.53943 161.8812 C 41.364070000000005 161.8812 32.51277 159.18521 24.934210000000004 154.0712 C 12.218320000000004 145.52054 4.628160000000005 131.26548 4.628160000000005 115.95848000000001 C 4.628160000000005 109.0044 6.1670400000000045 102.27064000000001 9.094380000000005 96.17304000000001 C 13.039840000000005 106.93325000000002 20.317580000000007 116.35169000000002 30.117710000000006 122.94703000000001 C 39.24674 129.10225000000003 49.903020000000005 132.34174000000002 60.952760000000005 132.34174000000002 C 60.952760000000005 132.34174000000002 139.35359 132.34174000000002 139.35358 132.34174000000002 Z M 133.18869 115.36354 C 136.42452 115.36354 139.04768 117.92569 139.04768 121.08627 C 139.04768 124.24685 136.42452 126.809 133.18869 126.809 C 129.95286000000002 126.809 127.3297 124.24685 127.3297 121.08627 C 127.3297 117.92569 129.95286000000002 115.36354 133.18869 115.36354 Z M 121.1982 109.09579 C 123.23001 109.09579 124.8771 110.80389 124.8771 112.91094 C 124.8771 115.01799 123.23001 116.72609 121.1982 116.72609 C 119.16639 116.72609 117.5193 115.01799 117.5193 112.91094 C 117.5193 110.80389 119.16639 109.09579 121.1982 109.09579 Z M 132.2349 103.91808 C 133.43893 103.91808 134.41499000000002 104.95514 134.41499000000002 106.23442 C 134.41499000000002 107.5137 133.43893000000003 108.55076 132.2349 108.55076 C 131.03087 108.55076 130.05481 107.5137 130.05481 106.23442 C 130.05481 104.95514 131.03087 103.91808 132.2349 103.91808 Z" transform="translate(-71.99087000000048, -129.02712000000002)" paint-order="stroke" style="stroke: none; stroke-width: 1; stroke-dasharray: none; stroke-linecap: butt; stroke-dashoffset: 0; stroke-linejoin: miter; stroke-miterlimit: 4; fill: rgb(4,120,165); fill-rule: nonzero; opacity: 1;"/>
</g>
		<g id="Path-01" transform="matrix(1 0 0 1 67.91280499999999 -24.257946191461315)">
<path stroke-linecap="round" d="M 245.5233 116.45565 C 245.5233 131.76322000000002 237.93307000000001 146.01771 225.21725 154.56837000000002 C 217.6386 159.68295 208.78738 162.37837000000002 199.61202 162.37837000000002 L 140.3023 162.37837000000002 C 144.94203 157.04459000000003 149.44292000000002 151.29443 153.74706 145.18496000000002 C 156.62807 141.08900000000003 159.32406 136.96989000000002 161.83474 132.83947 L 189.19869 132.83947 C 200.24831 132.83947 210.90471 129.6 220.03375 123.44420000000001 C 229.83382 116.84886 237.11162 107.43099000000001 241.05702 96.67021000000001 C 243.98435999999998 102.76782000000001 245.52330999999998 109.50213000000001 245.52330999999998 116.45566000000001 Z M 180.76553 116.03018 C 184.62184000000002 116.03018 187.74800000000002 119.08364 187.74800000000002 122.85027 C 187.74800000000002 126.61689999999999 184.62183000000002 129.67036 180.76553 129.67036 C 176.90923 129.67036 173.78306 126.61689999999999 173.78306 122.85027 C 173.78306 119.08364 176.90923 116.03018 180.76553 116.03018 Z M 176.30456 106.75799 C 178.16174 106.75799 179.66729 108.22852 179.66729 110.0425 C 179.66729 111.85648 178.16174 113.32701 176.30456 113.32701 C 174.44738 113.32701 172.94183 111.85648 172.94183 110.0425 C 172.94183 108.22852 174.44738 106.75799 176.30456 106.75799 Z M 188.82745 105.63501 C 189.91821 105.63501 190.80242 106.54029 190.80242 107.65701 C 190.80242 108.77373 189.91821000000002 109.67901 188.82745 109.67901 C 187.73668999999998 109.67901 186.85247999999999 108.77373 186.85247999999999 107.65701 C 186.85247999999999 106.54029 187.73668999999998 105.63501 188.82745 105.63501 Z M 192.23598 118.09702 C 193.01276000000001 118.09702 193.64248 118.74173 193.64248 119.53702 C 193.64248 120.33230999999999 193.01276000000001 120.97702 192.23598 120.97702 C 191.4592 120.97702 190.82948000000002 120.33230999999999 190.82948000000002 119.53702 C 190.82948000000002 118.74173 191.4592 118.09702 192.23598 118.09702 Z M 205.79055 24.34411 C 200.46821 27.79206 195.35406 32.37388 191.60527 38.37883 C 184.23508999999999 50.16897 181.92102 61.39245 181.22668 66.2285 C 180.33574 64.45846999999999 172.36762 46.33278 175.4415 32.663129999999995 C 180.12533 11.83397 202.03018 0 202.03018 0 C 202.03018 0 206.17246 10.34384 205.79055 24.3441 L 205.79055 24.3441 Z M 183.37452 67.27594 C 190.41556 47.61124000000001 208.58256999999998 27.79876000000001 227.47175 18.924810000000008 C 227.47199999999998 18.925020000000007 227.67863 19.203550000000007 227.67863 19.203550000000007 C 214.58006 29.110530000000008 203.05692 40.99199000000001 193.00974 53.96097000000001 C 189.6789 58.29817000000001 186.50241 62.77209000000001 183.67578 67.44825000000002 L 183.37452 67.27593000000002 L 183.37452 67.27593000000002 L 183.37452 67.27595000000002 Z" transform="translate(-192.912805, -81.18918500000001)" paint-order="stroke" style="stroke: none; stroke-width: 1; stroke-dasharray: none; stroke-linecap: butt; stroke-dashoffset: 0; stroke-linejoin: miter; stroke-miterlimit: 4; fill: rgb(6,140,121); fill-rule: nonzero; opacity: 1;"/>
</g>
</g>
</g>
<g id="text-logo" transform="matrix(1.9211538461538462 0 0 1.9211538461538462 638.83595654668 505.72110479941455)">
<g paint-order="stroke" style="">
		<g id="text-logo-path-0" transform="matrix(1 0 0 1 5.684342e-14 0)">
<filter width="142.11150190305793%" x="-21.055750951528967%" height="145.5937883236731%" y="-22.796894161836544%" id="SVGID_371624">
	<feGaussianBlur stdDeviation="0" in="SourceAlpha"/>
	<feOffset result="oBlur" dy="1.5010930966576737" dx="6.004372386630695"/>
	<feFlood flood-opacity="1" flood-color="rgb(0,0,0)"/>
	<feComposite operator="in" in2="oBlur"/>
	<feMerge>
		<feMergeNode/>
		<feMergeNode in="SourceGraphic"/>
	</feMerge>
</filter>
<path stroke-linecap="round" d="M 1.53 0 L 10.72 0 L 10.72 -21.36 L 18.22 -21.36 C 22.74 -21.36 26.03 -24.65 26.03 -29.17 L 26.03 -45.86 C 26.03 -50.37 22.74 -53.67 18.22 -53.67 L 1.53 -53.59 Z M 10.72 -30.47 L 10.72 -44.48 L 16.84 -44.56 L 16.84 -30.47 Z M 76.63 0 L 85.82 0 L 85.82 -53.59 L 76.63 -53.59 L 76.63 -31.39 L 70.51 -31.39 L 70.51 -53.59 L 61.32 -53.59 L 61.32 0 L 70.51 0 L 70.51 -22.2 L 76.63 -22.2 Z M 136.42 0 L 145.61 0 L 145.61 -45.78 C 145.61 -50.3 142.32 -53.59 137.8 -53.59 L 128.92 -53.59 C 124.4 -53.59 121.11 -50.3 121.11 -45.78 L 121.11 0 L 130.3 0 L 130.3 -19.9 L 136.42 -19.9 Z M 130.3 -29.09 L 130.3 -44.4 L 136.42 -44.4 L 136.42 -29.09 Z M 180.9 0 L 190.09 0 L 190.09 -21.36 L 196.21 -21.36 L 196.21 0 L 205.4 0 L 205.4 -20.59 C 205.4 -23.5 203.41 -25.65 200.65 -26.03 C 203.41 -26.34 205.4 -28.48 205.4 -31.39 L 205.4 -45.86 C 205.4 -50.37 202.11 -53.67 197.59 -53.67 L 180.9 -53.59 Z M 190.09 -30.47 L 190.09 -44.48 L 196.21 -44.56 L 196.21 -30.47 Z M 271.31 0 L 280.42 0 L 280.5 -44.4 L 280.5 -45.78 C 280.5 -50.3 277.21 -53.59 272.69 -53.59 L 266.03 -53.59 C 263.12 -53.59 260.98 -51.6 260.67 -48.84 C 260.29 -51.6 258.15 -53.59 255.24 -53.59 L 240.69 -53.59 L 240.77 0 L 249.88 0 L 249.8 -44.4 L 256 -44.4 L 256 0 L 265.19 0 L 265.11 -44.4 L 271.39 -44.4 Z M 331.1 0 L 340.29 0 L 340.29 -45.78 C 340.29 -50.3 337 -53.59 332.48 -53.59 L 323.6 -53.59 C 319.08 -53.59 315.79 -50.3 315.79 -45.78 L 315.79 0 L 324.98 0 L 324.98 -19.9 L 331.1 -19.9 Z M 324.98 -29.09 L 324.98 -44.4 L 331.1 -44.4 L 331.1 -29.09 Z M 375.58 0 L 395.49 0 L 395.49 -9.19 L 384.77 -9.19 L 384.77 -23.73 L 392.42 -23.73 L 392.42 -32.92 L 384.77 -32.92 L 384.77 -44.4 L 395.49 -44.4 L 395.49 -53.59 L 375.58 -53.59 Z M 446.09 0 L 455.28 0 L 455.28 -45.78 C 455.28 -50.3 451.99 -53.59 447.47 -53.59 L 438.59 -53.59 C 434.07 -53.59 430.78 -50.3 430.78 -45.78 L 430.78 0 L 439.97 0 L 439.97 -19.9 L 446.09 -19.9 Z M 439.97 -29.09 L 439.97 -44.4 L 446.09 -44.4 L 446.09 -29.09 Z M 498.38 -23.73 L 505.88 -23.73 L 505.88 -9.19 L 499.76 -9.19 L 499.76 -15.31 L 490.57 -15.31 L 490.57 -7.81 C 490.57 -3.29 493.86 0 498.38 0 L 507.26 0 C 511.78 0 515.07 -3.29 515.07 -7.81 L 515.07 -25.11 C 515.07 -29.63 511.78 -32.92 507.26 -32.92 L 499.76 -32.92 L 499.76 -44.4 L 505.88 -44.4 L 505.88 -38.28 L 515.07 -38.28 L 515.07 -45.78 C 515.07 -50.3 511.78 -53.59 507.26 -53.59 L 498.38 -53.59 C 493.86 -53.59 490.57 -50.3 490.57 -45.78 L 490.57 -31.54 C 490.57 -27.02 493.86 -23.73 498.38 -23.73 Z M 550.36 0 L 570.26 0 L 570.26 -9.19 L 559.55 -9.19 L 559.55 -23.73 L 567.2 -23.73 L 567.2 -32.92 L 559.55 -32.92 L 559.55 -44.4 L 570.26 -44.4 L 570.26 -53.59 L 550.36 -53.59 Z" transform="translate(-285.895, 26.835)" paint-order="stroke" style="stroke: rgb(125,219,220); stroke-width: 9.00655857994604; stroke-dasharray: none; stroke-linecap: butt; stroke-dashoffset: 0; stroke-linejoin: miter; stroke-miterlimit: 4; fill: rgb(0,47,64); fill-rule: nonzero; opacity: 1;filter: url(#SVGID_371624);"/>
</g>
</g>
</g>
</svg>